<svg width="74" height="48" viewBox="0 0 74 48" fill="none" xmlns="http://www.w3.org/2000/svg">
<path d="M50.6338 48H46.9312V45.9433C45.4667 46.4369 44.0803 46.9511 42.661 47.3624C41.6818 47.6462 40.6616 47.7738 39.6619 47.9794H33.89C33.0672 47.8272 32.2445 47.7285 31.4217 47.5105C29.9612 47.0992 28.5213 46.6426 27.0609 46.2024C27.0398 46.2217 27.0266 46.2481 27.0239 46.2765C27.0239 46.8441 27.0239 47.4118 27.0239 47.9794H23.3213C23.0515 47.8819 22.7769 47.7982 22.4985 47.7285C19.0258 47.0576 15.8049 45.4438 13.1887 43.0639L11.4197 41.4432V45.7911C11.3297 45.7926 11.2399 45.7829 11.1523 45.7623C10.9877 45.6883 10.8272 45.6019 10.6668 45.5114C5.62311 42.6896 2.66107 38.2841 1.12656 32.8379C-0.226925 28.0252 -0.255722 23.1179 0.484788 18.227C1.22118 13.476 3.06835 9.19806 6.52406 5.72632C7.95386 4.28838 9.61412 3.09966 11.4361 2.20935V7.23595C15.6365 2.39034 20.8858 0.362417 27.0444 0.21022V1.98311C33.7214 -0.723527 40.3284 -0.67828 46.9518 2.23403V0.201993C53.1515 0.374757 58.405 2.41502 62.6054 7.27709V2.28339C62.6765 2.29027 62.7467 2.30405 62.8152 2.32452C63.0949 2.47672 63.3788 2.6248 63.638 2.78522C69.2864 6.13767 72.1785 11.3247 73.3798 17.5936C74.2067 21.8925 74.2067 26.3095 73.3798 30.6084C72.4583 35.5158 70.4054 39.8513 66.6 43.2243C65.382 44.3104 64.0146 45.2163 62.5395 45.9145V41.3897C62.4408 41.3897 62.412 41.3897 62.4038 41.4185C62.3215 41.4967 62.2433 41.5789 62.1652 41.6612C59.7369 44.4287 56.5454 46.4177 52.9911 47.3789C52.2177 47.5887 51.4237 47.7902 50.6338 48ZM27.0362 39.5469C33.8077 43.9771 40.4065 43.9236 46.9765 39.0492V42.8541C47.1404 42.8717 47.3053 42.8785 47.4702 42.8747C53.5259 42.4386 57.8126 39.4112 60.0835 33.8251C62.5519 27.7455 62.5519 21.4849 60.3674 15.3353C58.5449 10.2182 54.9617 6.90276 49.5189 5.82916C48.6961 5.66874 47.8733 5.63583 46.9559 5.53299V9.04997C40.3736 4.17556 33.7913 4.11386 27.0239 8.57693V5.43838C25.6457 5.6893 24.3498 5.81271 23.1156 6.16646C18.1583 7.58559 15.0852 10.9997 13.4684 15.7549C11.6995 20.9409 11.5974 26.5503 13.1763 31.7972C14.5463 36.54 17.3273 40.1475 22.0871 41.9574C23.667 42.5464 25.3378 42.8541 27.0239 42.8664L27.0362 39.5469ZM62.6218 9.2104V38.9505C70.0228 32.5664 69.6814 14.9569 62.6218 9.2104V9.2104ZM11.3909 9.27621L11.1481 9.06643C11.0384 9.28956 10.9075 9.50168 10.7573 9.69989C9.37587 11.1992 8.29121 12.9467 7.56078 14.8499C6.01805 18.7947 5.73007 22.9287 6.12089 27.1161C6.34758 30.1102 7.22807 33.0181 8.70034 35.635C9.4045 36.8919 10.3139 38.0222 11.3909 38.9793V9.27621Z" fill="white"/>
</svg>
