<svg width="95" height="61" viewBox="0 0 95 61" fill="none" xmlns="http://www.w3.org/2000/svg">
<path d="M65.0028 61H60.2496V58.3863C58.3694 59.0136 56.5895 59.667 54.7675 60.1897C53.5105 60.5504 52.2007 60.7125 50.9173 60.9739H43.5075C42.4512 60.7804 41.3949 60.655 40.3386 60.3779C38.4637 59.8552 36.6152 59.2749 34.7403 58.7156C34.7132 58.74 34.6963 58.7736 34.6928 58.8097C34.6928 59.5311 34.6928 60.2525 34.6928 60.9739H29.9395C29.5931 60.8499 29.2406 60.7435 28.8832 60.655C24.425 59.8024 20.29 57.7514 16.9314 54.727L14.6604 52.6674V58.1928C14.5449 58.1947 14.4295 58.1824 14.3171 58.1562C14.1058 58.0622 13.8998 57.9524 13.6939 57.8374C7.21885 54.2513 3.41623 48.6527 1.44626 41.7315C-0.291322 35.6154 -0.328292 29.379 0.622363 23.1635C1.56774 17.1258 3.93909 11.6892 8.37548 7.2772C10.211 5.44982 12.3424 3.93915 14.6815 2.80771V9.19569C20.0738 3.03772 26.8129 0.460571 34.7192 0.267155V2.5202C43.2909 -0.919483 51.7729 -0.861981 60.276 2.83907V0.2567C68.2351 0.476254 74.9794 3.06908 80.3718 9.24796V2.9018C80.4631 2.91055 80.5533 2.92806 80.6411 2.95408C81.0003 3.1475 81.3647 3.33568 81.6974 3.53956C88.9488 7.79995 92.6616 14.3918 94.2038 22.3585C95.2654 27.8217 95.2654 33.435 94.2038 38.8982C93.0208 45.1346 90.3853 50.6444 85.5 54.9309C83.9364 56.3111 82.1809 57.4624 80.2873 58.3497V52.5994C80.1605 52.5994 80.1235 52.5994 80.113 52.636C80.0073 52.7354 79.907 52.8399 79.8066 52.9445C76.6893 56.4615 72.5921 58.9892 68.0291 60.2107C67.0362 60.4773 66.0169 60.7334 65.0028 61ZM34.7086 50.2575C43.4018 55.8875 51.8732 55.8196 60.3077 49.625V54.4604C60.5181 54.4827 60.7298 54.4915 60.9414 54.4866C68.7157 53.9324 74.2189 50.085 77.1343 42.9861C80.3031 35.2599 80.3031 27.3037 77.4987 19.4886C75.159 12.9856 70.5589 8.77226 63.5716 7.40789C62.5153 7.20402 61.459 7.1622 60.2813 7.03151V11.501C51.831 5.30644 43.3807 5.22803 34.6928 10.8998V6.91128C32.9235 7.23016 31.2599 7.38698 29.6754 7.83654C23.3113 9.64002 19.3661 13.9788 17.2905 20.0218C15.0197 26.6124 14.8886 33.7409 16.9155 40.409C18.6742 46.4362 22.2445 51.0207 28.3551 53.3208C30.3832 54.0694 32.5283 54.4604 34.6928 54.4761L34.7086 50.2575ZM80.3929 11.7049V49.4995C89.8942 41.3865 89.4558 19.0077 80.3929 11.7049ZM14.6234 11.7885L14.3118 11.5219C14.1709 11.8055 14.0029 12.0751 13.8101 12.3269C12.0366 14.2323 10.6441 16.4531 9.7064 18.8718C7.72587 23.8849 7.35617 29.1385 7.8579 34.4601C8.14893 38.265 9.27928 41.9605 11.1694 45.2862C12.0733 46.8835 13.2408 48.3199 14.6234 49.5361V11.7885Z" fill="black"/>
</svg>
